<svg width="44" height="44" viewBox="0 0 44 44" fill="none" xmlns="http://www.w3.org/2000/svg">
<path d="M19.9165 1.16667C18.8114 1.16667 17.7516 1.60566 16.9702 2.38706C16.1888 3.16846 15.7498 4.22827 15.7498 5.33334V15.75H5.33317C4.2281 15.75 3.16829 16.189 2.38689 16.9704C1.60549 17.7518 1.1665 18.8116 1.1665 19.9167V24.0833C1.1665 26.375 3.0415 28.25 5.33317 28.25H15.7498V38.6667C15.7498 40.9583 17.6248 42.8333 19.9165 42.8333H24.0832C25.1882 42.8333 26.248 42.3944 27.0295 41.613C27.8109 40.8316 28.2498 39.7717 28.2498 38.6667V28.25H38.6665C39.7716 28.25 40.8314 27.811 41.6128 27.0296C42.3942 26.2482 42.8332 25.1884 42.8332 24.0833V19.9167C42.8332 18.8116 42.3942 17.7518 41.6128 16.9704C40.8314 16.189 39.7716 15.75 38.6665 15.75H28.2498V5.33334C28.2498 4.22827 27.8109 3.16846 27.0295 2.38706C26.248 1.60566 25.1882 1.16667 24.0832 1.16667H19.9165Z" stroke="#02040D" stroke-width="1.5" stroke-linecap="round" stroke-linejoin="round"/>
</svg>
