<svg width="48" height="47" viewBox="0 0 48 47" fill="none" xmlns="http://www.w3.org/2000/svg">
<path d="M31.6987 15.5863V0.188751H16.2862V15.5863H0.867676V30.995H16.2862V46.3925H31.6987V30.995H47.1127V15.5863H31.6987ZM6.21443 26.414H3.11318V20.1688H6.13943V21.1805H4.32218V22.6783H5.96243V23.681H4.32218V25.43H6.21518L6.21443 26.414ZM11.9122 26.414H10.7789V22.3693H10.7407L9.56993 24.7467L8.38943 22.379V26.414H7.20893V20.1688H8.34218L9.56993 22.5373L10.7789 20.1688H11.9129L11.9122 26.414ZM16.2517 26.414H13.1512V20.1688H16.1774V21.1805H14.3579V22.6783H15.9997V23.681H14.3579V25.43H16.2517V26.414ZM21.1627 26.414H19.8989L19.3259 24.2225C19.2794 24.0448 19.2419 23.9608 19.0829 23.9608H18.4552V26.414H17.2462V20.2062C17.8281 20.1455 18.4131 20.1172 18.9982 20.1215C20.2724 20.1215 21.1057 20.7028 21.1057 21.9838C21.1057 22.8845 20.7404 23.3608 20.1869 23.5768V23.5865C20.3189 23.624 20.3654 23.7178 20.4029 23.876L21.1627 26.414ZM26.2604 23.6878C26.2604 25.046 25.9229 26.5168 24.2287 26.5168C22.4939 26.5168 21.9224 24.8413 21.9224 23.3045C21.9224 21.7505 22.5517 20.0653 24.3217 20.0653C24.9862 20.0653 25.4819 20.3383 25.9619 20.8145L25.2959 21.704C25.0244 21.3673 24.7904 21.0965 24.3037 21.0965C23.2642 21.0965 23.1884 22.5373 23.1884 23.297C23.1884 24.0643 23.2162 25.5523 24.2647 25.5523C25.0702 25.5523 25.1632 24.8225 25.1632 24.1753V23.9518H24.3127V22.9603H26.2604V23.6878ZM30.4027 26.414H27.3014V20.1688H30.3284V21.1805H28.5082V22.6783H30.1499V23.681H28.5082V25.43H30.4027V26.414ZM35.6684 26.414H34.6102L32.6047 22.5575H32.5769V26.414H31.3964V20.1688H32.5672L34.4804 23.867H34.4977V20.1688H35.6684V26.414ZM39.0622 26.5168C37.3387 26.5168 36.7199 24.9913 36.7199 23.2963C36.7199 21.6935 37.3859 20.0645 39.1192 20.0645C39.8489 20.0645 40.3267 20.3938 40.8067 20.9638L40.0837 21.8173C39.8129 21.404 39.5602 21.0958 39.0997 21.0958C38.2454 21.0958 37.9829 22.172 37.9829 23.2963C37.9829 24.1393 38.1524 25.4953 39.1267 25.4953C39.6352 25.4953 39.9142 25.187 40.2232 24.7745L40.8419 25.655C40.4294 26.1605 39.8294 26.5168 39.0614 26.516L39.0622 26.5168ZM43.8982 24.0268V26.414H42.6982V24.092L41.0669 20.168H42.3607L43.3079 23.0143L44.2537 20.168H45.4822L43.8989 24.026L43.8982 24.0268Z" fill="black"/>
</svg>
