<svg width="37" height="41" viewBox="0 0 37 41" fill="none" xmlns="http://www.w3.org/2000/svg">
<path d="M24.1818 39.7188V32.9025H28.9019C29.5045 32.9025 30.0824 32.6631 30.5085 32.237C30.9346 31.8109 31.174 31.233 31.174 30.6304V25.7326H33.798C34.0894 25.7327 34.3762 25.6599 34.6322 25.5208C34.8883 25.3817 35.1054 25.1806 35.2639 24.9361C35.4224 24.6915 35.5171 24.4112 35.5394 24.1206C35.5618 23.8301 35.5111 23.5386 35.3919 23.2726C33.675 19.4511 31.1672 14.7532 31.1672 14.7532V11.0307C31.171 10.5303 31.0648 10.0352 30.8562 9.58035C30.1633 7.70407 29.0293 6.02197 27.5498 4.67599C26.0704 3.33 24.2888 2.35962 22.3556 1.84672C12.1432 -0.831945 1.53099 6.32085 1.45411 16.8715C1.43627 19.1053 1.89481 21.3172 2.79916 23.3598C3.70352 25.4024 5.0329 27.2287 6.6987 28.7171V39.7188" stroke="black" stroke-width="1.5" stroke-linecap="round" stroke-linejoin="round"/>
<path d="M16.7644 21.3115C18.0222 21.3115 19.2284 20.8118 20.1178 19.9225M16.7644 21.3115C15.5067 21.3115 14.3004 20.8118 13.4111 19.9225M16.7644 21.3115V24.8682M20.1178 19.9225C21.0071 19.0331 21.5067 17.8269 21.5067 16.5691M20.1178 19.9225L22.6325 22.4373M21.5067 16.5691C21.5067 15.3114 21.0071 14.1052 20.1178 13.2158M21.5067 16.5691H25.0635M20.1178 13.2158C19.2284 12.3264 18.0222 11.8268 16.7644 11.8268M20.1178 13.2158L22.6325 10.701M16.7644 11.8268C15.5067 11.8268 14.3004 12.3264 13.4111 13.2158M16.7644 11.8268V8.27005M13.4111 13.2158C12.5217 14.1052 12.0221 15.3114 12.0221 16.5691M13.4111 13.2158L10.8963 10.701M12.0221 16.5691C12.0221 17.8269 12.5217 19.0331 13.4111 19.9225M12.0221 16.5691H8.46533M13.4111 19.9225L10.8963 22.4373M15.9752 8.27005H17.5554M22.0739 10.1424L23.1912 11.2596M25.0635 15.7782V17.3601M23.1912 21.8786L22.0739 22.9959M17.5554 24.8682H15.9752M11.4549 22.9959L10.3377 21.8786M8.46533 17.3601V15.7782M10.3377 11.2596L11.4549 10.1424" stroke="black" stroke-width="1.5" stroke-linecap="round" stroke-linejoin="round"/>
</svg>
